<svg width="90" height="85" viewBox="0 0 90 85" fill="none" xmlns="http://www.w3.org/2000/svg">
<path d="M42 42.3787C42 38.9756 40.8281 36.0701 38.4844 33.6622C36.1406 31.2543 33.3125 30.0504 30 30.0504C26.6875 30.0504 23.8594 31.2543 21.5156 33.6622C19.1719 36.0701 18 38.9756 18 42.3787C18 45.7819 19.1719 48.6874 21.5156 51.0953C23.8594 53.5032 26.6875 54.7071 30 54.7071C33.3125 54.7071 36.1406 53.5032 38.4844 51.0953C40.8281 48.6874 42 45.7819 42 42.3787ZM78 67.0355C78 65.366 77.4062 63.9213 76.2188 62.7013C75.0312 61.4813 73.625 60.8713 72 60.8713C70.375 60.8713 68.9688 61.4813 67.7812 62.7013C66.5938 63.9213 66 65.366 66 67.0355C66 68.737 66.5859 70.1898 67.7578 71.3937C68.9297 72.5977 70.3438 73.1997 72 73.1997C73.6562 73.1997 75.0703 72.5977 76.2422 71.3937C77.4141 70.1898 78 68.737 78 67.0355ZM78 17.722C78 16.0526 77.4062 14.6078 76.2188 13.3878C75.0312 12.1678 73.625 11.5578 72 11.5578C70.375 11.5578 68.9688 12.1678 67.7812 13.3878C66.5938 14.6078 66 16.0526 66 17.722C66 19.4236 66.5859 20.8764 67.7578 22.0803C68.9297 23.2842 70.3438 23.8862 72 23.8862C73.6562 23.8862 75.0703 23.2842 76.2422 22.0803C77.4141 20.8764 78 19.4236 78 17.722ZM60 37.9964V46.9056C60 47.2266 59.8906 47.5396 59.6719 47.8446C59.4531 48.1496 59.2031 48.3182 58.9219 48.3503L51.6562 49.5061C51.3125 50.6298 50.8125 51.8498 50.1562 53.1661C51.2188 54.7071 52.625 56.5532 54.375 58.7042C54.5938 59.0574 54.7031 59.3784 54.7031 59.6674C54.7031 60.0526 54.5938 60.3576 54.375 60.5823C53.6562 61.5455 52.3672 62.9822 50.5078 64.8925C48.6484 66.8027 47.4219 67.7578 46.8281 67.7578C46.4844 67.7578 46.1562 67.6455 45.8438 67.4207L40.4531 63.0865C39.2969 63.6965 38.0938 64.1942 36.8438 64.5794C36.5 68.0468 36.1406 70.5349 35.7656 72.0439C35.5469 72.8144 35.0781 73.1997 34.3594 73.1997H25.6406C25.2969 73.1997 24.9844 73.0793 24.7031 72.8385C24.4219 72.5977 24.2656 72.3168 24.2344 71.9957L23.1562 64.6276C22.0938 64.3065 20.9219 63.8089 19.6406 63.1347L14.1094 67.4207C13.8906 67.6455 13.5781 67.7578 13.1719 67.7578C12.8281 67.7578 12.5 67.6294 12.1875 67.3726C7.6875 63.1026 5.4375 60.5342 5.4375 59.6674C5.4375 59.3784 5.54688 59.0734 5.76562 58.7524C6.07812 58.3029 6.71875 57.4521 7.6875 56.2C8.65625 54.9479 9.39062 53.9687 9.89062 53.2624C9.17188 51.8498 8.625 50.5334 8.25 49.3135L1.125 48.1577C0.8125 48.1256 0.546875 47.9731 0.328125 47.7002C0.109375 47.4273 0 47.1143 0 46.7611V37.8519C0 37.5309 0.109375 37.2179 0.328125 36.9129C0.546875 36.6079 0.796875 36.4393 1.07812 36.4072L8.34375 35.2514C8.6875 34.1277 9.1875 32.9077 9.84375 31.5914C8.78125 30.0504 7.375 28.2043 5.625 26.0533C5.40625 25.7001 5.29688 25.3791 5.29688 25.0901C5.29688 24.7049 5.40625 24.3838 5.625 24.127C6.3125 23.1638 7.59375 21.7352 9.46875 19.841C11.3438 17.9468 12.5781 16.9997 13.1719 16.9997C13.5156 16.9997 13.8438 17.112 14.1562 17.3368L19.5469 21.671C20.6094 21.0931 21.8125 20.5794 23.1562 20.1299C23.5 16.6626 23.8594 14.1905 24.2344 12.7136C24.4531 11.9431 24.9219 11.5578 25.6406 11.5578H34.3594C34.7031 11.5578 35.0156 11.6782 35.2969 11.919C35.5781 12.1598 35.7344 12.4407 35.7656 12.7618L36.8438 20.1299C37.9062 20.451 39.0781 20.9486 40.3594 21.6228L45.8906 17.3368C46.1406 17.112 46.4531 16.9997 46.8281 16.9997C47.1719 16.9997 47.5 17.1281 47.8125 17.3849C52.3125 21.6549 54.5625 24.2233 54.5625 25.0901C54.5625 25.347 54.4531 25.652 54.2344 26.0051C53.8594 26.5188 53.2031 27.3857 52.2656 28.6057C51.3281 29.8256 50.625 30.7888 50.1562 31.4951C50.875 33.0362 51.4062 34.3525 51.75 35.444L58.875 36.5517C59.1875 36.6159 59.4531 36.7844 59.6719 37.0573C59.8906 37.3302 60 37.6432 60 37.9964ZM90 63.6644V70.4065C90 70.9202 87.6719 71.4178 83.0156 71.8994C82.6406 72.7662 82.1719 73.601 81.6094 74.4036C83.2031 78.0315 84 80.2467 84 81.0494C84 81.1778 83.9375 81.2901 83.8125 81.3865C80 83.6659 78.0625 84.8057 78 84.8057C77.75 84.8057 77.0312 84.0512 75.8438 82.5422C74.6562 81.0333 73.8438 79.9417 73.4062 79.2675C72.7812 79.3317 72.3125 79.3638 72 79.3638C71.6875 79.3638 71.2188 79.3317 70.5938 79.2675C70.1562 79.9417 69.3438 81.0333 68.1562 82.5422C66.9688 84.0512 66.25 84.8057 66 84.8057C65.9375 84.8057 64 83.6659 60.1875 81.3865C60.0625 81.2901 60 81.1778 60 81.0494C60 80.2467 60.7969 78.0315 62.3906 74.4036C61.8281 73.601 61.3594 72.7662 60.9844 71.8994C56.3281 71.4178 54 70.9202 54 70.4065V63.6644C54 63.1508 56.3281 62.6531 60.9844 62.1716C61.3906 61.2405 61.8594 60.4058 62.3906 59.6674C60.7969 56.0395 60 53.8242 60 53.0216C60 52.8932 60.0625 52.7808 60.1875 52.6845C60.3125 52.6203 60.8594 52.2992 61.8281 51.7213C62.7969 51.1434 63.7188 50.5977 64.5938 50.084C65.4688 49.5703 65.9375 49.3135 66 49.3135C66.25 49.3135 66.9688 50.0599 68.1562 51.5528C69.3438 53.0457 70.1562 54.1292 70.5938 54.8034C71.2188 54.7392 71.6875 54.7071 72 54.7071C72.3125 54.7071 72.7812 54.7392 73.4062 54.8034C75 52.524 76.4375 50.7261 77.7188 49.4098L78 49.3135C78.125 49.3135 80.0625 50.4371 83.8125 52.6845C83.9375 52.7808 84 52.8932 84 53.0216C84 53.8242 83.2031 56.0395 81.6094 59.6674C82.1406 60.4058 82.6094 61.2405 83.0156 62.1716C87.6719 62.6531 90 63.1508 90 63.6644ZM90 14.351V21.0931C90 21.6067 87.6719 22.1044 83.0156 22.5859C82.6406 23.4528 82.1719 24.2875 81.6094 25.0901C83.2031 28.718 84 30.9333 84 31.7359C84 31.8643 83.9375 31.9767 83.8125 32.073C80 34.3525 78.0625 35.4922 78 35.4922C77.75 35.4922 77.0312 34.7377 75.8438 33.2288C74.6562 31.7198 73.8438 30.6283 73.4062 29.9541C72.7812 30.0183 72.3125 30.0504 72 30.0504C71.6875 30.0504 71.2188 30.0183 70.5938 29.9541C70.1562 30.6283 69.3438 31.7198 68.1562 33.2288C66.9688 34.7377 66.25 35.4922 66 35.4922C65.9375 35.4922 64 34.3525 60.1875 32.073C60.0625 31.9767 60 31.8643 60 31.7359C60 30.9333 60.7969 28.718 62.3906 25.0901C61.8281 24.2875 61.3594 23.4528 60.9844 22.5859C56.3281 22.1044 54 21.6067 54 21.0931V14.351C54 13.8373 56.3281 13.3397 60.9844 12.8581C61.3906 11.927 61.8594 11.0923 62.3906 10.3539C60.7969 6.72602 60 4.51077 60 3.70814C60 3.57972 60.0625 3.46735 60.1875 3.37104C60.3125 3.30683 60.8594 2.98578 61.8281 2.40788C62.7969 1.82999 63.7188 1.2842 64.5938 0.770523C65.4688 0.256841 65.9375 0 66 0C66.25 0 66.9688 0.746444 68.1562 2.23933C69.3438 3.73222 70.1562 4.81577 70.5938 5.48997C71.2188 5.42576 71.6875 5.39366 72 5.39366C72.3125 5.39366 72.7812 5.42576 73.4062 5.48997C75 3.21051 76.4375 1.41263 77.7188 0.0963153L78 0C78.125 0 80.0625 1.12368 83.8125 3.37104C83.9375 3.46735 84 3.57972 84 3.70814C84 4.51077 83.2031 6.72602 81.6094 10.3539C82.1406 11.0923 82.6094 11.927 83.0156 12.8581C87.6719 13.3397 90 13.8373 90 14.351Z" fill="#1D4ED8"/>
</svg>
