<svg width="92" height="92" viewBox="0 0 92 92" fill="none" xmlns="http://www.w3.org/2000/svg">
<path d="M31.4615 31.8462C29.3194 31.8462 27.265 30.9142 25.7503 29.2552C24.2356 27.5962 23.3846 25.3461 23.3846 23V0H18.5385C14.6826 0 10.9847 1.6776 8.25822 4.66376C5.53173 7.64992 4 11.7 4 15.9231V76.0769C3.99931 79.9942 5.31705 83.7742 7.7012 86.6942C10.0854 89.6142 13.3686 91.4692 16.9231 91.9045V54.8462C16.9231 52.5 17.774 50.25 19.2888 48.591C20.8035 46.932 22.8579 46 25 46H67C69.1421 46 71.1965 46.932 72.7112 48.591C74.226 50.25 75.0769 52.5 75.0769 54.8462V91.9045C78.6314 91.4692 81.9146 89.6142 84.2988 86.6942C86.6829 83.7742 88.0007 79.9942 88 76.0769V26.3615C88 24.2705 87.624 22.1999 86.8934 20.268C86.1627 18.3361 85.0919 16.5808 83.7418 15.1022L74.2111 4.66369C71.8395 2.06708 68.7212 0.448223 65.3846 0.0813846V23C65.3846 24.1617 65.1757 25.312 64.7698 26.3853C64.3639 27.4585 63.7689 28.4337 63.0189 29.2552C62.2689 30.0766 61.3785 30.7282 60.3986 31.1728C59.4187 31.6173 58.3684 31.8462 57.3077 31.8462H31.4615ZM58.9231 0H29.8462V23C29.8462 23.4692 30.0163 23.9192 30.3193 24.251C30.6222 24.5828 31.0331 24.7692 31.4615 24.7692H57.3077C57.7361 24.7692 58.147 24.5828 58.4499 24.251C58.7529 23.9192 58.9231 23.4692 58.9231 23V0ZM68.6154 92H23.3846V54.8462C23.3846 54.3769 23.5548 53.9269 23.8577 53.5951C24.1607 53.2633 24.5716 53.0769 25 53.0769H67C67.4284 53.0769 67.8393 53.2633 68.1422 53.5951C68.4452 53.9269 68.6154 54.3769 68.6154 54.8462V92Z" fill="#1D4ED8"/>
</svg>
