<svg width="389" height="47" viewBox="0 0 389 47" fill="none" xmlns="http://www.w3.org/2000/svg">
<path d="M0.576017 36.16C12.2667 36.8 20.1814 37.12 24.32 37.12C25.3014 37.12 26.0694 36.8427 26.624 36.288C27.2214 35.6907 27.52 34.9013 27.52 33.92V28.16H12.8C8.32002 28.16 5.05602 27.1573 3.00802 25.152C1.00268 23.104 1.71661e-05 19.84 1.71661e-05 15.36V13.44C1.71661e-05 8.96 1.00268 5.71733 3.00802 3.712C5.05602 1.664 8.32002 0.639999 12.8 0.639999H35.264V9.6H15.36C12.8 9.6 11.52 10.88 11.52 13.44V14.72C11.52 17.28 12.8 18.56 15.36 18.56H26.88C31.0614 18.56 34.1334 19.5413 36.096 21.504C38.0587 23.4667 39.04 26.5387 39.04 30.72V33.92C39.04 38.1013 38.0587 41.1733 36.096 43.136C34.1334 45.0987 31.0614 46.08 26.88 46.08C24.704 46.08 22.4 46.0373 19.968 45.952L14.08 45.696C9.72802 45.4827 5.22668 45.184 0.576017 44.8V36.16ZM83.835 45.44H72.315V27.2H56.315V45.44H44.795V0.639999H56.315V18.24H72.315V0.639999H83.835V45.44ZM110.425 32L121.305 0.639999H133.785L116.825 45.44H104.025L87.065 0.639999H99.545L110.425 32ZM172.503 45.44H136.983V0.639999H172.503V9.6H148.503V18.24H167.383V27.2H148.503V36.48H172.503V45.44ZM202.568 0.639999C207.389 0.639999 211.037 1.89867 213.512 4.416C216.029 6.89067 217.288 10.5387 217.288 15.36V30.72C217.288 35.5413 216.029 39.2107 213.512 41.728C211.037 44.2027 207.389 45.44 202.568 45.44H177.608V0.639999H202.568ZM205.768 15.36C205.768 11.52 203.848 9.6 200.008 9.6H189.128V36.48H200.008C203.848 36.48 205.768 34.56 205.768 30.72V15.36ZM229.733 45.44H217.253L234.213 0.639999H247.013L263.973 45.44H251.493L248.613 37.44H232.613L229.733 45.44ZM235.493 29.12H245.733L240.613 14.08L235.493 29.12ZM281.55 32L292.43 0.639999H304.91L287.95 45.44H275.15L258.19 0.639999H270.67L281.55 32ZM329.868 45.44H318.348V9.6H304.908V0.639999H343.308V9.6H329.868V45.44ZM376.595 12.8C376.595 10.24 375.315 8.96 372.755 8.96H361.875C359.315 8.96 358.035 10.24 358.035 12.8V33.28C358.035 35.84 359.315 37.12 361.875 37.12H372.755C375.315 37.12 376.595 35.84 376.595 33.28V12.8ZM388.115 33.28C388.115 37.76 387.091 41.024 385.043 43.072C383.038 45.0773 379.795 46.08 375.315 46.08H359.315C354.835 46.08 351.571 45.0773 349.523 43.072C347.518 41.024 346.515 37.76 346.515 33.28V12.8C346.515 8.32 347.518 5.07733 349.523 3.072C351.571 1.024 354.835 0 359.315 0H375.315C379.795 0 383.038 1.024 385.043 3.072C387.091 5.07733 388.115 8.32 388.115 12.8V33.28Z" fill="#FACC15"/>
</svg>
