<svg width="92" height="92" viewBox="0 0 92 92" fill="none" xmlns="http://www.w3.org/2000/svg">
<path d="M77.2445 27.9943L83.5556 21.7733C81.5556 19.539 79.5556 17.5238 77.2889 15.5962L70.9778 21.9048C64.0889 16.3848 55.4222 13.1429 46 13.1429C35.3913 13.1429 25.2172 17.2969 17.7157 24.6912C10.2143 32.0855 6 42.1143 6 52.5714C6 63.0285 10.2143 73.0573 17.7157 80.4516C25.2172 87.8459 35.3913 92 46 92C68.2222 92 86 74.3448 86 52.5714C86 43.2838 82.7111 34.741 77.2445 27.9943ZM50.4444 56.9524H41.5556V26.2857H50.4444V56.9524ZM59.3333 0H32.6667V8.7619H59.3333V0Z" fill="#1D4ED8"/>
</svg>
